<?xml version="1.0" encoding="utf-8"?>
<svg viewBox="0 0 500 500" xmlns="http://www.w3.org/2000/svg">
  <g id="freepik--Floor--inject-2" transform="matrix(1, 0, 0, 1, 1.121084, -22.400068)"/>
  <g id="freepik--404-error--inject-2" transform="matrix(1, 0, 0, 1, 4.48431, -24.081678)">
    <path d="M157.57,227.67l-6.21-24.43-49,12.47-6.48-25.5L135,100.89,154.47,96l18.9,74.36,15.69-4L195.59,192l-15.69,4,6.2,24.43ZM124,182.87l24.26-6.17-8-31.56Z" style="fill: rgb(255, 255, 255);"/>
    <path d="M298,146.12a65.58,65.58,0,0,1-3.68,22.35,55.48,55.48,0,0,1-10.12,17.67A45.82,45.82,0,0,1,269,197.73a43.91,43.91,0,0,1-19,4.14,44.54,44.54,0,0,1-19.14-4.14,45.75,45.75,0,0,1-15.27-11.59,54.17,54.17,0,0,1-10-17.67A66.82,66.82,0,0,1,202,146.12a66.84,66.84,0,0,1,3.59-22.36,54.22,54.22,0,0,1,10-17.66,46.68,46.68,0,0,1,15.27-11.68A43.74,43.74,0,0,1,250,90.19a43.12,43.12,0,0,1,19,4.23,46.76,46.76,0,0,1,15.18,11.68,55.54,55.54,0,0,1,10.12,17.66A65.6,65.6,0,0,1,298,146.12Zm-29.62,0q0-12.88-5.15-20.88t-13.25-8q-8.46,0-13.52,8t-5.06,20.88q0,12.88,5.06,20.79T250,174.82q8.1,0,13.25-7.91T268.4,146.12Z" style="fill: rgb(255, 255, 255);"/>
    <path d="M350.84,223l4-24.88L304.93,190l4.21-26,71.5-66.33,19.8,3.21-12.27,75.74,16,2.59-4.23,26.15-16-2.59-4,24.88Zm-13-54.47,24.7,4,5.21-32.15Z" style="fill: rgb(255, 255, 255);"/>
    <path d="M208.68,72.46A13,13,0,0,1,203,71.23a13.94,13.94,0,0,1-4.4-3.27,15.19,15.19,0,0,1-3.86-10,14.37,14.37,0,0,1,1.07-5.5,15.16,15.16,0,0,1,2.95-4.64,13.94,13.94,0,0,1,4.46-3.21,13.18,13.18,0,0,1,5.62-1.19,12.56,12.56,0,0,1,5.67,1.27A14.22,14.22,0,0,1,218.85,48a15.11,15.11,0,0,1,2.83,4.69,14.67,14.67,0,0,1,0,10.8,14.91,14.91,0,0,1-2.91,4.61,13.89,13.89,0,0,1-4.44,3.19A13.31,13.31,0,0,1,208.68,72.46Zm-8.33-14.54a11.38,11.38,0,0,0,.57,3.59,9.53,9.53,0,0,0,1.64,3.07,7.91,7.91,0,0,0,2.62,2.14,7.57,7.57,0,0,0,3.54.81,7.41,7.41,0,0,0,3.57-.83,8.1,8.1,0,0,0,2.63-2.2,9.68,9.68,0,0,0,1.61-3.09,11.31,11.31,0,0,0,0-7.09,10,10,0,0,0-1.65-3.07,8,8,0,0,0-2.63-2.12,8.16,8.16,0,0,0-7.09,0,8,8,0,0,0-2.63,2.18,9.85,9.85,0,0,0-1.59,3.07A11.63,11.63,0,0,0,200.35,57.92Z" style="fill: rgb(255, 255, 255);"/>
    <path d="M236.23,72.66a11.48,11.48,0,0,1-4.65-.89,10.34,10.34,0,0,1-3.49-2.4,10.68,10.68,0,0,1-2.21-3.49,11.9,11.9,0,0,1,0-8.37A10.68,10.68,0,0,1,228.09,54a10.34,10.34,0,0,1,3.49-2.4,11.48,11.48,0,0,1,4.65-.89,11.33,11.33,0,0,1,4.62.89,10.36,10.36,0,0,1,3.47,2.4,10.68,10.68,0,0,1,2.21,3.49,11.9,11.9,0,0,1,0,8.37,10.94,10.94,0,0,1-2.18,3.49,10.3,10.3,0,0,1-3.48,2.4A11.46,11.46,0,0,1,236.23,72.66Zm-5.54-10.94a7.2,7.2,0,0,0,.43,2.56,6.2,6.2,0,0,0,1.17,2A5.1,5.1,0,0,0,234,67.59a5.31,5.31,0,0,0,4.37,0,5.1,5.1,0,0,0,1.75-1.31,6.4,6.4,0,0,0,1.18-2,7.61,7.61,0,0,0,.42-2.59,7.48,7.48,0,0,0-.42-2.54,6.4,6.4,0,0,0-1.18-2,5.1,5.1,0,0,0-1.75-1.31,5.17,5.17,0,0,0-2.18-.47,4.92,4.92,0,0,0-2.19.49,5.42,5.42,0,0,0-1.75,1.33,6.2,6.2,0,0,0-1.17,2A7.26,7.26,0,0,0,230.69,61.72Z" style="fill: rgb(255, 255, 255);"/>
    <path d="M263.61,72.66a8.34,8.34,0,0,1-4.36-1.11,7.86,7.86,0,0,1-2.91-3V80.86h-5.41V51.09h4.73v3.64a8.58,8.58,0,0,1,3-2.93A8.42,8.42,0,0,1,263,50.73a9.1,9.1,0,0,1,4,.87,9.93,9.93,0,0,1,3.13,2.34,11,11,0,0,1,2.06,3.47,11.94,11.94,0,0,1,.74,4.22,13.59,13.59,0,0,1-.68,4.33,11.11,11.11,0,0,1-1.92,3.51,8.82,8.82,0,0,1-2.93,2.34A8.14,8.14,0,0,1,263.61,72.66Zm-1.81-4.6a4.89,4.89,0,0,0,2.24-.53,5.45,5.45,0,0,0,1.75-1.41,6.55,6.55,0,0,0,1.14-2.06,7.37,7.37,0,0,0,.4-2.43,7,7,0,0,0-.44-2.48,6.19,6.19,0,0,0-1.24-2,5.65,5.65,0,0,0-1.86-1.33,5.42,5.42,0,0,0-2.32-.49,4.94,4.94,0,0,0-1.57.27,5.52,5.52,0,0,0-1.5.74,6.61,6.61,0,0,0-1.23,1.13,4.85,4.85,0,0,0-.83,1.42v5a7.34,7.34,0,0,0,2.22,3A5.13,5.13,0,0,0,261.8,68.06Z" style="fill: rgb(255, 255, 255);"/>
    <path d="M284.54,72.66a16.21,16.21,0,0,1-5.21-.85A12.69,12.69,0,0,1,275,69.39L277,66a17.91,17.91,0,0,0,3.78,2.08,10.19,10.19,0,0,0,3.66.7,4.66,4.66,0,0,0,2.54-.6,2,2,0,0,0,.93-1.74,1.73,1.73,0,0,0-1.09-1.65,23.75,23.75,0,0,0-3.55-1.22c-1.38-.37-2.55-.74-3.52-1.09a8.78,8.78,0,0,1-2.34-1.19,4,4,0,0,1-1.29-1.53,4.91,4.91,0,0,1-.41-2.08,6.54,6.54,0,0,1,.63-2.91,6.26,6.26,0,0,1,1.76-2.2,8.13,8.13,0,0,1,2.64-1.4,10.86,10.86,0,0,1,3.29-.48,14.43,14.43,0,0,1,4.47.68,10.79,10.79,0,0,1,3.81,2.23l-2.18,3.27A12.59,12.59,0,0,0,287,55.09a8.49,8.49,0,0,0-3-.57,4.33,4.33,0,0,0-2.3.57,2,2,0,0,0-.93,1.82,1.85,1.85,0,0,0,.22.93,1.94,1.94,0,0,0,.71.64,7.15,7.15,0,0,0,1.27.55c.53.17,1.18.36,2,.54,1.46.38,2.7.76,3.74,1.14A9.69,9.69,0,0,1,291.18,62a4.59,4.59,0,0,1,1.46,1.67A5.2,5.2,0,0,1,293.1,66a5.91,5.91,0,0,1-2.3,4.91A10,10,0,0,1,284.54,72.66Z" style="fill: rgb(255, 255, 255);"/>
    <path d="M297.67,61.47V43.29h5.41V61.47Zm0,10.79v-6.1h5.41v6.1Z" style="fill: rgb(255, 255, 255);"/>
  </g>
  <g id="freepik--Robot--inject-2" transform="matrix(1, 0, 0, 1, 1.121084, -22.400068)">
    <rect x="235.09" y="313.85" width="35.51" height="2.91" style="fill:#37474f"/>
    <rect x="235.09" y="317.63" width="35.51" height="2.91" style="fill:#37474f"/>
    <rect x="235.09" y="321.42" width="35.51" height="2.91" style="fill:#37474f"/>
    <rect x="235.09" y="325.21" width="35.51" height="2.91" style="fill:#37474f"/>
    <rect x="235.09" y="329" width="35.51" height="2.91" style="fill:#37474f"/>
    <rect x="218.46" y="404.59" width="67.52" height="2.91" style="fill:#37474f"/>
    <rect x="218.46" y="408.38" width="67.52" height="2.91" style="fill:#37474f"/>
    <rect x="218.46" y="412.17" width="67.52" height="2.91" style="fill:#37474f"/>
    <rect x="218.46" y="415.96" width="67.52" height="2.91" style="fill:#37474f"/>
    <rect x="218.46" y="419.75" width="67.52" height="2.91" style="fill:#37474f"/>
    <path d="M188.83,289.8c0-.39-14.77-5.36-14.77-5.36l.87-50.88,19.64-4.22Z" style="fill:#FFC727"/>
    <path d="M188.83,289.8c0-.39-14.77-5.36-14.77-5.36l.87-50.88,19.64-4.22Z" style="opacity:0.2"/>
    <path d="M324.49,309.77c.1-.38,15.72.06,15.72.06l16.69-48.08-17-10.71Z" style="fill:#FFC727"/>
    <path d="M324.49,309.77c.1-.38,15.72.06,15.72.06l16.69-48.08-17-10.71Z" style="opacity:0.2"/>
    <path d="M186,308.54s5.49-82.3,10.31-109.38c0,0,99.42,7.52,153.09,28,0,0-27.67,96.12-29.1,100.89C320.28,328.09,250.27,314.3,186,308.54Z" style="fill:#FFC727"/>
    <path d="M274.72,210.15q-2.42,14.86-4.94,29.72l-5.13,29.67-.27-.41L297.69,277l16.64,4,16.61,4.11-16.7-3.74-16.69-3.81-33.34-7.79-.34-.08.06-.34,5.31-29.65Q271.91,225,274.72,210.15Z" style="opacity:0.1"/>
    <path d="M271.07,215.8a2,2,0,0,1-1.75,1.94,2,2,0,0,1-1.46-.48,2,2,0,0,1-.66-1.46,2,2,0,0,1,.66-1.46,1.94,1.94,0,0,1,3.21,1.46Zm0,0a1.6,1.6,0,0,0-.55-1.19,1.57,1.57,0,1,0,0,2.39A1.64,1.64,0,0,0,271.07,215.8Z" style="opacity:0.1"/>
    <path d="M269.32,228.05a1.93,1.93,0,0,1-1.74,1.93,1.92,1.92,0,0,1-2.12-1.93,1.94,1.94,0,0,1,.65-1.46,2,2,0,0,1,1.47-.48A2,2,0,0,1,269.32,228.05Zm0,0a1.6,1.6,0,0,0-.55-1.2,1.57,1.57,0,0,0-1.19-.36,1.57,1.57,0,0,0,0,3.12,1.56,1.56,0,0,0,1.74-1.56Z" style="opacity:0.1"/>
    <path d="M267.17,241a1.93,1.93,0,0,1-1.74,1.93,2,2,0,0,1-1.47-3.4,2,2,0,0,1,1.47-.47A1.94,1.94,0,0,1,267.17,241Zm0,0a1.6,1.6,0,0,0-.55-1.2,1.57,1.57,0,0,0-1.19-.36,1.57,1.57,0,0,0,0,3.12,1.62,1.62,0,0,0,1.19-.37A1.56,1.56,0,0,0,267.17,241Z" style="opacity:0.1"/>
    <path d="M265,253.93a1.94,1.94,0,0,1-1.74,1.93,1.94,1.94,0,1,1,0-3.87A1.94,1.94,0,0,1,265,253.93Zm0,0a1.6,1.6,0,0,0-.55-1.2,1.57,1.57,0,0,0-1.19-.36,1.57,1.57,0,0,0,0,3.12,1.62,1.62,0,0,0,1.19-.37A1.6,1.6,0,0,0,265,253.93Z" style="opacity:0.1"/>
    <path d="M272.35,274.56a1.94,1.94,0,1,1-1.75-1.93A1.94,1.94,0,0,1,272.35,274.56Zm0,0a1.64,1.64,0,0,0-.55-1.2,1.62,1.62,0,0,0-1.2-.36,1.57,1.57,0,1,0,1.2,2.76A1.64,1.64,0,0,0,272.35,274.56Z" style="opacity:0.1"/>
    <path d="M284.56,277.54a1.94,1.94,0,0,1-3.21,1.46,1.94,1.94,0,0,1,0-2.92,2,2,0,0,1,1.46-.47A1.93,1.93,0,0,1,284.56,277.54Zm0,0a1.6,1.6,0,0,0-.55-1.2,1.62,1.62,0,0,0-1.2-.36,1.57,1.57,0,1,0,1.2,2.76A1.6,1.6,0,0,0,284.56,277.54Z" style="opacity:0.1"/>
    <path d="M296.77,280.52a1.93,1.93,0,0,1-3.2,1.46,2,2,0,0,1-.66-1.46,1.94,1.94,0,0,1,.65-1.46,2,2,0,0,1,1.47-.47A1.93,1.93,0,0,1,296.77,280.52Zm0,0a1.59,1.59,0,0,0-.54-1.2A1.64,1.64,0,0,0,295,279a1.57,1.57,0,0,0,0,3.12,1.63,1.63,0,0,0,1.2-.36A1.59,1.59,0,0,0,296.77,280.52Z" style="opacity:0.1"/>
    <path d="M309,283.5a1.94,1.94,0,0,1-3.21,1.46,2,2,0,0,1-.66-1.46,2,2,0,0,1,.66-1.46,2,2,0,0,1,1.46-.48A2,2,0,0,1,309,283.5Zm0,0a1.64,1.64,0,0,0-.55-1.2,1.57,1.57,0,1,0-1.2,2.76,1.62,1.62,0,0,0,1.2-.36A1.64,1.64,0,0,0,309,283.5Z" style="opacity:0.1"/>
    <path d="M321.2,286.61a2,2,0,0,1-1.89,1.79,2,2,0,0,1-1.43-.58,1.95,1.95,0,0,1,.23-2.91,1.92,1.92,0,0,1,1.49-.36A2,2,0,0,1,321.2,286.61Zm0,0a1.6,1.6,0,0,0-.46-1.23,1.57,1.57,0,1,0-.18,2.38A1.6,1.6,0,0,0,321.2,286.61Z" style="opacity:0.1"/>
    <path d="M262.87,266.86a1.94,1.94,0,0,1-1.74,1.94,2.05,2.05,0,0,1-1.47-.47,1.94,1.94,0,0,1,1.47-3.4A1.94,1.94,0,0,1,262.87,266.86Zm0,0a1.6,1.6,0,0,0-.55-1.19,1.57,1.57,0,1,0,0,2.39A1.6,1.6,0,0,0,262.87,266.86Z" style="opacity:0.1"/>
    <circle cx="223.43" cy="267.31" r="28.23" transform="translate(-121.44 217.93) rotate(-41.96)" style="opacity:0.2"/>
    <circle cx="223.43" cy="267.31" r="22.64" transform="translate(-105.66 381.64) rotate(-69.27)" style="fill:#263238"/>
    <circle cx="299.19" cy="279.14" r="28.23" transform="translate(-106.35 333.63) rotate(-50.67)" style="fill:#FFC727"/>
    <circle cx="299.19" cy="279.14" r="28.23" transform="translate(-106.35 333.63) rotate(-50.67)" style="opacity:0.2"/>
    <path d="M326.66,285.67c-.13.56-.28,1.09-.44,1.63l-55-11.74c.13-1,.3-2,.53-2.95a28.24,28.24,0,1,1,54.94,13.06Z" style="opacity:0.2"/>
    <circle cx="299.19" cy="279.14" r="22.64" transform="translate(-84.49 136.92) rotate(-22.68)" style="fill:#263238"/>
    <rect x="296.51" y="265.8" width="5.36" height="26.69" transform="translate(72.65 -61.61) rotate(13.37)" style="fill:#FFC727"/>
    <path d="M328.3,285.14,270.5,271.4a29.71,29.71,0,0,1,57.8,13.74Z" style="fill:#FFC727"/>
    <path d="M328.3,285.14,270.5,271.4a29.71,29.71,0,0,1,57.8,13.74Z" style="opacity:0.2"/>
    <path d="M250.07,295.92a10.51,10.51,0,0,1,2.61-6.35,7.67,7.67,0,0,1,3.07-2.07,8.66,8.66,0,0,1,3.7-.41,6.9,6.9,0,0,1,5.8,4.33,11.49,11.49,0,0,1,.59,6.85,18,18,0,0,0-2-6.14,5.88,5.88,0,0,0-4.61-3.06,7.06,7.06,0,0,0-5.49,1.61A14.78,14.78,0,0,0,250.07,295.92Z" style="opacity:0.1"/>
    <path d="M193.72,238.34c.23-3,.57-6,.86-9s.65-6,1-9,.74-6,1.12-9,.81-6,1.22-9l.1-.8.81.05q9.78.61,19.51,1.61c3.24.33,6.48.71,9.72,1.12s6.47.9,9.68,1.48l-19.52-1.2-19.49-1.27.91-.74c-.44,3-.85,6-1.32,9s-.92,6-1.42,8.95-1,5.95-1.52,8.93S194.33,235.38,193.72,238.34Z" style="fill:#fff"/>
    <path d="M198.41,261.16a24.55,24.55,0,0,1,4.52-10.09c.55-.76,1.18-1.46,1.78-2.18s1.33-1.33,2-2,1.47-1.18,2.22-1.75,1.58-1,2.39-1.52,1.71-.83,2.57-1.22l2.68-.93,2.78-.57c.93-.14,1.87-.17,2.81-.24A27.3,27.3,0,0,1,233,242.76a38.59,38.59,0,0,0-10.78-.72,25.22,25.22,0,0,0-10.07,3.13,29.14,29.14,0,0,0-8.18,6.75A33.21,33.21,0,0,0,198.41,261.16Z" style="fill:#fff"/>
    <path d="M276.29,268.78a24.78,24.78,0,0,1,5.86-9.37c.65-.67,1.37-1.28,2.07-1.91s1.5-1.13,2.26-1.69,1.61-1,2.44-1.43,1.71-.8,2.58-1.17,1.8-.59,2.7-.86l2.79-.55,2.83-.18c.94,0,1.88.1,2.82.16a27.19,27.19,0,0,1,10.47,3.56,38.91,38.91,0,0,0-10.58-2.2,25.25,25.25,0,0,0-10.4,1.71,29.45,29.45,0,0,0-9,5.55A33.57,33.57,0,0,0,276.29,268.78Z" style="fill:#fff"/>
    <path d="M189.14,359.25c-7.23,0-23.06-1.62-33.25-14.72-13-16.76-8.32-48.92-8.12-50.28l5.66.86c0,.31-4.54,31.09,7,45.9,11.26,14.48,31.69,12.41,31.89,12.38l.65,5.69C192.72,359.1,191.32,359.25,189.14,359.25Z" style="fill:#FFC727"/>
    <path d="M189.14,359.25c-7.23,0-23.06-1.62-33.25-14.72-13-16.76-8.32-48.92-8.12-50.28l5.66.86c0,.31-4.54,31.09,7,45.9,11.26,14.48,31.69,12.41,31.89,12.38l.65,5.69C192.72,359.1,191.32,359.25,189.14,359.25Z" style="fill:#fff;opacity:0.4"/>
    <path d="M155.1,299a19,19,0,0,1-3.16-.25c-9.55-1.55-13.77-7.26-15.64-11.78S134,277,135,270.68l12.1,2c-.63,3.89-.44,7.32.52,9.65.69,1.66,2,3.66,6.26,4.35,1.94.31,4,.15,6.23-3.16a22.84,22.84,0,0,0,3.06-8.23l12.11,2a35.47,35.47,0,0,1-5,13C166.56,296,161.22,299,155.1,299Z" style="fill:#FFC727"/>
    <path d="M201.1,375.63c0-.26-10.26-1.89-10.26-1.89l-5-33.41,12.39-4.9Z" style="fill:#FFC727"/>
    <path d="M201.1,375.63c0-.26-10.26-1.89-10.26-1.89l-5-33.41,12.39-4.9Z" style="opacity:0.2"/>
    <path d="M302.3,375.69c0-.26,10.29-1.66,10.29-1.66l5.71-33.29L306,335.57Z" style="fill:#FFC727"/>
    <path d="M302.3,375.69c0-.26,10.29-1.66,10.29-1.66l5.71-33.29L306,335.57Z" style="opacity:0.2"/>
    <path d="M196.84,328s82.79-3.53,110.75,1.13c0,0-8.21,80.1-8.65,81.66,0,0-82.36-.23-95.23,0C203.71,410.74,196.74,357.47,196.84,328Z" style="fill:#FFC727"/>
    <path d="M222,349.91s45.19-1.79,60.46.56c0,0-4.49,40.39-4.73,41.18,0,0-45-.11-52,0C225.74,391.65,222.65,364,222,349.91Z" style="opacity:0.2"/>
    <path d="M228.16,391.63l-2.43,0S222.65,364,222,349.9l2.83-.1Z" style="opacity:0.2"/>
    <path d="M241.49,359.87a4.81,4.81,0,1,0,3.14,6A4.81,4.81,0,0,0,241.49,359.87Zm2.58,5.86a4.22,4.22,0,1,1-2.75-5.3A4.22,4.22,0,0,1,244.07,365.73Zm-2.58-5.86a4.81,4.81,0,1,0,3.14,6A4.81,4.81,0,0,0,241.49,359.87Zm2.58,5.86a4.22,4.22,0,1,1-2.75-5.3A4.22,4.22,0,0,1,244.07,365.73Zm-2.58-5.86a4.81,4.81,0,1,0,3.14,6A4.81,4.81,0,0,0,241.49,359.87Zm2.58,5.86a4.22,4.22,0,1,1-2.75-5.3A4.22,4.22,0,0,1,244.07,365.73Zm-1-10.94a10.13,10.13,0,1,0,6.61,12.71A10.14,10.14,0,0,0,243.1,354.79Zm2.25,11.34a5.56,5.56,0,1,1-3.63-7A5.57,5.57,0,0,1,245.35,366.13Zm-.72-.23a4.81,4.81,0,1,0-6,3.14A4.8,4.8,0,0,0,244.63,365.9Zm-.56-.17a4.22,4.22,0,1,1-2.75-5.3A4.22,4.22,0,0,1,244.07,365.73Zm-2.58-5.86a4.81,4.81,0,1,0,3.14,6A4.81,4.81,0,0,0,241.49,359.87Zm2.58,5.86a4.22,4.22,0,1,1-2.75-5.3A4.22,4.22,0,0,1,244.07,365.73Zm-2.58-5.86a4.81,4.81,0,1,0,3.14,6A4.81,4.81,0,0,0,241.49,359.87Zm2.58,5.86a4.22,4.22,0,1,1-2.75-5.3A4.22,4.22,0,0,1,244.07,365.73Z" style="fill:#FFC727"/>
    <polygon points="238.99 374.31 235.27 373.13 234.65 375.83 237.95 376.87 238.99 374.31" style="fill:#FFC727"/>
    <polygon points="232.31 370.82 230.51 367.37 228.16 368.83 229.76 371.91 232.31 370.82" style="fill:#FFC727"/>
    <polygon points="230.05 363.64 231.22 359.93 228.53 359.3 227.48 362.61 230.05 363.64" style="fill:#FFC727"/>
    <polygon points="233.53 356.96 236.99 355.17 235.52 352.82 232.45 354.42 233.53 356.96" style="fill:#FFC727"/>
    <polygon points="240.71 354.7 244.43 355.88 245.05 353.18 241.75 352.14 240.71 354.7" style="fill:#FFC727"/>
    <polygon points="247.39 358.18 249.19 361.64 251.54 360.18 249.94 357.1 247.39 358.18" style="fill:#FFC727"/>
    <polygon points="249.65 365.37 248.48 369.08 251.18 369.71 252.22 366.4 249.65 365.37" style="fill:#FFC727"/>
    <polygon points="246.17 372.04 242.72 373.84 244.18 376.19 247.25 374.59 246.17 372.04" style="fill:#FFC727"/>
    <path d="M257.84,374a3.24,3.24,0,1,0,.94,4.48A3.24,3.24,0,0,0,257.84,374Zm.61,4.26a2.84,2.84,0,1,1-.83-3.93A2.84,2.84,0,0,1,258.45,378.27Zm-.61-4.26a3.24,3.24,0,1,0,.94,4.48A3.24,3.24,0,0,0,257.84,374Zm.61,4.26a2.84,2.84,0,1,1-.83-3.93A2.84,2.84,0,0,1,258.45,378.27Zm-.61-4.26a3.24,3.24,0,1,0,.94,4.48A3.24,3.24,0,0,0,257.84,374Zm.61,4.26a2.84,2.84,0,1,1-.83-3.93A2.84,2.84,0,0,1,258.45,378.27Zm1.34-7.26a6.82,6.82,0,1,0,2,9.44A6.82,6.82,0,0,0,259.79,371Zm-.59,7.75a3.74,3.74,0,1,1-1.09-5.17A3.74,3.74,0,0,1,259.2,378.76Zm-.42-.27a3.23,3.23,0,1,0-4.48.95A3.25,3.25,0,0,0,258.78,378.49Zm-.33-.22a2.84,2.84,0,1,1-.83-3.93A2.84,2.84,0,0,1,258.45,378.27Zm-.61-4.26a3.24,3.24,0,1,0,.94,4.48A3.24,3.24,0,0,0,257.84,374Zm.61,4.26a2.84,2.84,0,1,1-.83-3.93A2.84,2.84,0,0,1,258.45,378.27Zm-.61-4.26a3.24,3.24,0,1,0,.94,4.48A3.24,3.24,0,0,0,257.84,374Zm.61,4.26a2.84,2.84,0,1,1-.83-3.93A2.84,2.84,0,0,1,258.45,378.27Z" style="fill:#dbdbdb"/>
    <polygon points="253.6 382.92 251.4 381.49 250.51 383.12 252.47 384.39 253.6 382.92" style="fill:#dbdbdb"/>
    <polygon points="249.9 379.45 249.36 376.89 247.57 377.41 248.05 379.7 249.9 379.45" style="fill:#dbdbdb"/>
    <polygon points="249.73 374.39 251.16 372.19 249.53 371.3 248.25 373.25 249.73 374.39" style="fill:#dbdbdb"/>
    <polygon points="253.2 370.69 255.76 370.14 255.24 368.36 252.95 368.84 253.2 370.69" style="fill:#dbdbdb"/>
    <polygon points="258.26 370.52 260.46 371.95 261.35 370.31 259.4 369.04 258.26 370.52" style="fill:#dbdbdb"/>
    <polygon points="261.96 373.98 262.51 376.55 264.29 376.02 263.81 373.74 261.96 373.98" style="fill:#dbdbdb"/>
    <polygon points="262.13 379.05 260.7 381.25 262.33 382.14 263.61 380.18 262.13 379.05" style="fill:#dbdbdb"/>
    <polygon points="258.67 382.75 256.1 383.29 256.63 385.08 258.91 384.6 258.67 382.75" style="fill:#dbdbdb"/>
    <polygon points="305.59 401.41 308.78 402.01 317.88 340.38 314.25 339.71 305.59 401.41" style="fill:#FFC727"/>
    <path d="M277.72,391.65l4.73-41.18,31.8-10.76s-8.66,62.37-8.66,61.7Z" style="fill:#FFC727"/>
    <path d="M277.72,391.65l4.73-41.18,31.8-10.76s-8.66,62.37-8.66,61.7Z" style="fill:#fff;opacity:0.4"/>
    <path d="M200.64,352.14c-.52-3.41-.8-6.85-1-10.29-.1-1.72-.14-3.45-.18-5.17s-.06-3.45,0-5.18v-.45l.44,0c6.32-.34,12.63-.76,19-1s12.64-.6,19-.8c-6.31.57-12.61,1.06-18.92,1.52s-12.63.84-18.94,1.27l.46-.47,0,5.15.06,5.15c0,1.72,0,3.44.09,5.15Z" style="fill:#fff"/>
    <path d="M286.88,351.08q3-1.41,6-2.61t6.12-2.32c2.06-.7,4.13-1.39,6.24-2a57.54,57.54,0,0,1,6.39-1.49l.53-.09-.09.51c-.5,2.67-1,5.33-1.64,8,.23-2.71.56-5.41.9-8.1l.44.43c-2.1.5-4.18,1.08-6.26,1.7s-4.15,1.27-6.21,1.94Z" style="fill:#fff"/>
    <polygon points="214.4 328.12 214.94 338.42 215.4 348.72 216.19 369.33 216.81 389.94 217.06 400.25 217.23 410.57 216.69 400.27 216.24 389.96 215.44 369.36 214.82 348.74 214.57 338.43 214.4 328.12" style="opacity:0.1"/>
    <path d="M211.45,334.33a1.93,1.93,0,0,1-2.85,2.07,2,2,0,0,1-.94-1.31,2,2,0,0,1,.36-1.56,2,2,0,0,1,1.34-.75A1.94,1.94,0,0,1,211.45,334.33Zm0,0a1.56,1.56,0,1,0-.3,1.28A1.56,1.56,0,0,0,211.45,334.33Z" style="opacity:0.1"/>
    <path d="M212.16,346.68a2,2,0,0,1-1.33,2.24,1.93,1.93,0,0,1-2.46-1.48,2,2,0,0,1,.36-1.56,2,2,0,0,1,1.34-.75A1.94,1.94,0,0,1,212.16,346.68Zm0,0a1.54,1.54,0,0,0-2-1.18,1.57,1.57,0,1,0,2,1.18Z" style="opacity:0.1"/>
    <path d="M212.61,359.79a2,2,0,0,1-1.33,2.24,2,2,0,0,1-1.52-.17,2,2,0,0,1-.94-1.31,2,2,0,0,1,.36-1.56,1.93,1.93,0,0,1,3.43.8Zm0,0a1.54,1.54,0,0,0-2-1.18,1.57,1.57,0,1,0,2,1.18Z" style="opacity:0.1"/>
    <path d="M213.06,372.9a2,2,0,0,1-1.33,2.24,2,2,0,0,1-2.46-1.48,2,2,0,0,1,.36-1.56,1.93,1.93,0,0,1,3.43.8Zm0,0a1.6,1.6,0,0,0-.77-1.07,1.66,1.66,0,0,0-1.25-.12,1.57,1.57,0,0,0,.62,3.06,1.61,1.61,0,0,0,1.1-.59A1.58,1.58,0,0,0,213.06,372.9Z" style="opacity:0.1"/>
    <path d="M213.51,386a1.93,1.93,0,0,1-2.85,2.07,2,2,0,0,1-.94-1.3,2,2,0,0,1,.36-1.57,2,2,0,0,1,1.34-.75A2,2,0,0,1,213.51,386Zm0,0a1.56,1.56,0,0,0-2-1.18,1.57,1.57,0,0,0,.62,3.06,1.56,1.56,0,0,0,1.4-1.88Z" style="opacity:0.1"/>
    <path d="M214,399.11a1.93,1.93,0,1,1-3.79.77,1.94,1.94,0,0,1,1.7-2.32A2,2,0,0,1,214,399.11Zm0,0a1.58,1.58,0,0,0-.77-1.06,1.62,1.62,0,0,0-1.25-.12,1.57,1.57,0,0,0,.62,3.06,1.56,1.56,0,0,0,1.4-1.88Z" style="opacity:0.1"/>
    <rect x="170.93" y="426.13" width="48.98" height="5.72" transform="translate(-116.03 75.12) rotate(-16.86)" style="fill:#FFC727"/>
    <rect x="170.93" y="426.13" width="48.98" height="5.72" transform="translate(-116.03 75.12) rotate(-16.86)" style="fill:#fff;opacity:0.4"/>
    <rect x="191.27" y="424.75" width="5.72" height="8.5" transform="translate(-120.89 79.02) rotate(-17.64)" style="fill:#FFC727"/>
    <polygon points="172.43 446.86 160.33 394.48 123.82 403.14 141.8 454.19 172.43 446.86" style="fill:#FFC727"/>
    <polygon points="180.53 444.2 172.43 446.86 160.33 394.48 171.98 397.26 180.53 444.2" style="fill:#FFC727"/>
    <polygon points="180.53 444.2 172.43 446.86 160.33 394.48 171.98 397.26 180.53 444.2" style="opacity:0.2"/>
    <circle cx="218.86" cy="421.89" r="6.21" style="fill:#FFC727"/>
    <rect x="302.54" y="404.41" width="5.72" height="48.98" transform="translate(-193.99 595.74) rotate(-73.02)" style="fill:#FFC727"/>
    <rect x="302.54" y="404.41" width="5.72" height="48.98" transform="translate(-193.99 595.74) rotate(-73.02)" style="fill:#fff;opacity:0.4"/>
    <rect x="302.44" y="426.04" width="8.5" height="5.72" transform="translate(-195.36 590.05) rotate(-72.23)" style="fill:#FFC727"/>
    <polygon points="328.36 446.82 340.56 394.46 377.06 403.2 358.97 454.21 328.36 446.82" style="fill:#FFC727"/>
    <polygon points="320.26 444.14 328.36 446.82 340.56 394.46 328.91 397.21 320.26 444.14" style="fill:#FFC727"/>
    <polygon points="320.26 444.14 328.36 446.82 340.56 394.46 328.91 397.21 320.26 444.14" style="opacity:0.2"/>
    <path d="M275.76,421.74a6.22,6.22,0,1,0,6.23-6.2A6.21,6.21,0,0,0,275.76,421.74Z" style="fill:#FFC727"/>
    <path d="M322.66,357.13c.15-.14,15.21-14.1,32.92-9.32,18.11,4.88,33.06,32.16,33.21,32.44l5-2.72c-.66-1.21-16.26-29.73-36.76-35.25-20.86-5.62-37.65,10-38.35,10.7Z" style="fill:#FFC727"/>
    <path d="M322.66,357.13c.15-.14,15.21-14.1,32.92-9.32,18.11,4.88,33.06,32.16,33.21,32.44l5-2.72c-.66-1.21-16.26-29.73-36.76-35.25-20.86-5.62-37.65,10-38.35,10.7Z" style="fill:#fff;opacity:0.4"/>
    <path d="M382.12,407.71,393,402a23,23,0,0,1-2.51-8.42c-.24-4,1.34-5.36,3.07-6.28,3.8-2,6.07-1.21,7.62-.3,2.17,1.29,4.38,3.91,6.22,7.4l10.85-5.73c-3-5.62-6.62-9.74-10.84-12.23s-11-4.5-19.57,0c-6.67,3.52-10.07,9.86-9.59,17.86A35.5,35.5,0,0,0,382.12,407.71Z" style="fill:#FFC727"/>
    <path d="M325,338c2.35-1.62,4.76-3.15,7.17-4.67s4.86-3,7.31-4.44,4.92-2.87,7.42-4.24l3.76-2.05c1.27-.65,2.52-1.33,3.81-2-1.17.82-2.38,1.59-3.56,2.38l-3.62,2.29c-2.41,1.53-4.85,3-7.3,4.44s-4.93,2.87-7.43,4.24S327.51,336.75,325,338Z" style="fill:#263238"/>
    <path d="M318.72,361.42c3.37,1.92,6.56,4.09,9.71,6.31s6.21,4.56,9.12,7.12a115.22,115.22,0,0,1-9.71-6.31C324.72,366.29,321.63,364,318.72,361.42Z" style="fill:#263238"/>
    <path d="M324.25,358.54c2.6.79,5.16,1.69,7.71,2.59S337,363,339.57,364s5,2,7.52,3l3.74,1.6c1.23.57,2.47,1.11,3.69,1.7-1.3-.38-2.58-.83-3.87-1.24l-3.83-1.34c-2.56-.9-5.09-1.87-7.61-2.84s-5-2-7.53-3S326.7,359.72,324.25,358.54Z" style="fill:#263238"/>
    <path d="M331.63,340.22c2.49-.65,5-1.19,7.51-1.71s5-1,7.56-1.45,5.05-.86,7.59-1.22l3.81-.53c1.28-.14,2.55-.31,3.84-.42-1.25.33-2.5.6-3.75.91l-3.76.8c-2.51.53-5,1-7.56,1.45s-5.06.86-7.6,1.21S334.19,340,331.63,340.22Z" style="fill:#263238"/>
  </g>
</svg>